<svg width="420" height="218" viewBox="0 0 420 218" fill="none" xmlns="http://www.w3.org/2000/svg">
<g filter="url(#filter0_b)">
<rect y="155" width="87" height="29" rx="14.5" fill="#A394FB" fill-opacity="0.1"/>
</g>
<g opacity="0.9" filter="url(#filter1_b)">
<rect x="348" y="109" width="42" height="3" rx="1.5" fill="#FF7A30"/>
</g>
<circle r="8.5" transform="matrix(1 0 0 -1 124 58)" stroke="#A562E7" stroke-opacity="0.6" stroke-width="3"/>
<path opacity="0.5" d="M94.913 204H93.0869V210.087H87V211.913H93.0869V218H94.913V211.913H101V210.087H94.913V204Z" fill="#62A6EC"/>
<circle cx="381.5" cy="38.5" r="38.5" transform="rotate(-180 381.5 38.5)" fill="url(#paint0_linear)"/>
<circle cx="381.5" cy="38.5" r="38.5" transform="rotate(-180 381.5 38.5)" fill="url(#paint1_linear)"/>
<circle cx="381.5" cy="38.5" r="38.5" transform="rotate(-180 381.5 38.5)" fill="url(#paint2_radial)"/>
<defs>
<filter id="filter0_b" x="-100" y="55" width="287" height="229" filterUnits="userSpaceOnUse" color-interpolation-filters="sRGB">
<feFlood flood-opacity="0" result="BackgroundImageFix"/>
<feGaussianBlur in="BackgroundImage" stdDeviation="50"/>
<feComposite in2="SourceAlpha" operator="in" result="effect1_backgroundBlur"/>
<feBlend mode="normal" in="SourceGraphic" in2="effect1_backgroundBlur" result="shape"/>
</filter>
<filter id="filter1_b" x="335" y="96" width="68" height="29" filterUnits="userSpaceOnUse" color-interpolation-filters="sRGB">
<feFlood flood-opacity="0" result="BackgroundImageFix"/>
<feGaussianBlur in="BackgroundImage" stdDeviation="6.5"/>
<feComposite in2="SourceAlpha" operator="in" result="effect1_backgroundBlur"/>
<feBlend mode="normal" in="SourceGraphic" in2="effect1_backgroundBlur" result="shape"/>
</filter>
<linearGradient id="paint0_linear" x1="218.441" y1="-167.588" x2="343" y2="115.5" gradientUnits="userSpaceOnUse">
<stop stop-color="#A4C2F5"/>
<stop offset="1" stop-color="#6592E0" stop-opacity="0"/>
</linearGradient>
<linearGradient id="paint1_linear" x1="227.5" y1="221.375" x2="390.074" y2="-2.60639e-06" gradientUnits="userSpaceOnUse">
<stop offset="0.0709817" stop-color="#5042CC" stop-opacity="0.940374"/>
<stop offset="1" stop-color="#1F1C38" stop-opacity="0"/>
</linearGradient>
<radialGradient id="paint2_radial" cx="0" cy="0" r="1" gradientUnits="userSpaceOnUse" gradientTransform="translate(407.514 47.692) rotate(-120.379) scale(72.2834 76.0366)">
<stop offset="0.0001" stop-color="#6B539F"/>
<stop offset="0.601467" stop-color="#373A7D"/>
<stop offset="1" stop-color="#59408F"/>
</radialGradient>
</defs>
</svg>
