<svg width="8" height="17" viewBox="0 0 8 17" fill="none" xmlns="http://www.w3.org/2000/svg">
<path d="M7.67183 0.503235L5.5816 0.5C3.2333 0.5 2.4303 2.2085 2.4303 3.63666V6.47232H0.328669C0.147063 6.47232 0 6.61432 0 6.78947V8.65607C0 8.83122 0.14723 8.97306 0.328669 8.97306H2.4303V16.183C2.4303 16.3582 2.57737 16.5 2.75897 16.5H4.78642C4.96803 16.5 5.11509 16.358 5.11509 16.183V8.97306H7.5724C7.754 8.97306 7.90106 8.83122 7.90106 8.65607L7.90207 6.78947C7.90207 6.70537 7.86736 6.62483 7.80582 6.56531C7.74428 6.5058 7.66043 6.47232 7.57323 6.47232H5.11509V3.90529C5.11509 3.50072 5.29267 2.82171 6.26342 2.82171L7.6715 2.82122C7.85294 2.82122 8 2.67923 8 2.50424V0.820222C8 0.645394 7.8531 0.503558 7.67183 0.503235Z" fill="white"/>
</svg>
