<svg width="20" height="17" viewBox="0 0 20 17" fill="none" xmlns="http://www.w3.org/2000/svg">
<path d="M19.5333 2.62317C18.8243 2.93236 18.0688 3.13729 17.2811 3.2368C18.0914 2.75585 18.7099 2.00006 19.0007 1.08909C18.2451 1.53688 17.411 1.85317 16.522 2.02968C15.8046 1.27034 14.7822 0.800049 13.6668 0.800049C11.5027 0.800049 9.76048 2.54617 9.76048 4.68677C9.76048 4.99477 9.7867 5.29093 9.85105 5.57286C6.60137 5.41531 3.72588 3.86702 1.79419 1.50845C1.45695 2.0901 1.25913 2.75585 1.25913 3.47254C1.25913 4.81826 1.95626 6.01117 2.99539 6.7018C2.36738 6.68996 1.75129 6.50871 1.22934 6.22322C1.22934 6.23506 1.22934 6.25046 1.22934 6.26586C1.22934 8.15414 2.58427 9.72257 4.36104 10.0839C4.04287 10.1704 3.69609 10.2118 3.33621 10.2118C3.08596 10.2118 2.83332 10.1976 2.59618 10.1455C3.10264 11.6843 4.53979 12.8156 6.24864 12.8523C4.91874 13.8865 3.23015 14.5096 1.40213 14.5096C1.08157 14.5096 0.774125 14.4954 0.466675 14.4563C2.19817 15.5663 4.25022 16.2 6.46314 16.2C13.656 16.2 17.5885 10.277 17.5885 5.14285C17.5885 4.97108 17.5826 4.80523 17.5742 4.64057C18.35 4.09328 19.0019 3.40976 19.5333 2.62317Z" fill="white"/>
</svg>
