<svg width="16" height="17" viewBox="0 0 16 17" fill="none" xmlns="http://www.w3.org/2000/svg">
<path fill-rule="evenodd" clip-rule="evenodd" d="M4.41533 0.5H11.5845C14.0193 0.5 16.0001 2.48081 16 4.91542V12.0846C16 14.5192 14.0193 16.5 11.5845 16.5H4.41533C1.98072 16.5 0 14.5193 0 12.0846V4.91542C0 2.48081 1.98072 0.5 4.41533 0.5ZM12.293 5.27344C12.8819 5.27344 13.3594 4.79599 13.3594 4.20703C13.3594 3.61807 12.8819 3.14062 12.293 3.14062C11.704 3.14062 11.2266 3.61807 11.2266 4.20703C11.2266 4.79599 11.704 5.27344 12.293 5.27344ZM10.7344 8.5C10.7344 10.0102 9.51015 11.2344 8 11.2344C6.48985 11.2344 5.26562 10.0102 5.26562 8.5C5.26562 6.98985 6.48985 5.76562 8 5.76562C9.51015 5.76562 10.7344 6.98985 10.7344 8.5ZM12.2344 8.5C12.2344 10.8386 10.3386 12.7344 8 12.7344C5.66142 12.7344 3.76562 10.8386 3.76562 8.5C3.76562 6.16142 5.66142 4.26562 8 4.26562C10.3386 4.26562 12.2344 6.16142 12.2344 8.5Z" fill="white"/>
</svg>
