<svg width="23" height="27" viewBox="0 0 23 27" fill="none" xmlns="http://www.w3.org/2000/svg">
<path d="M21.8252 13.5609C21.5599 12.4086 20.6174 11.5586 19.4829 11.432C16.797 11.132 14.0771 11.1306 11.3705 11.132C8.66278 11.1306 5.94346 11.132 3.25669 11.432C2.12277 11.5588 1.18076 12.4089 0.915817 13.5609C0.53822 15.2018 0.533691 16.993 0.533691 18.6825C0.533691 20.3721 0.533691 22.163 0.911288 23.8038C1.17623 24.9559 2.11824 25.8059 3.25273 25.9327C5.93893 26.233 8.65825 26.2342 11.3657 26.233C14.0734 26.2344 16.7921 26.233 19.4792 25.9327C20.6131 25.8059 21.5557 24.9559 21.8206 23.8038C22.1979 22.163 22.1999 20.3721 22.1999 18.6825C22.1996 16.9927 22.2025 15.2018 21.8252 13.5609ZM6.71365 14.8327H5.14552V23.1653H3.68892V14.8327H2.14937V13.4678H6.71365V14.8327ZM10.6699 23.1656H9.35966V22.3772C8.83912 22.9739 8.3449 23.2649 7.86343 23.2649C7.44139 23.2649 7.15097 23.0939 7.01992 22.728C6.94859 22.5094 6.90443 22.1635 6.90443 21.6535V15.9397H8.21357V21.2597C8.21357 21.5666 8.21357 21.7259 8.22545 21.769C8.25687 21.9722 8.35623 22.0752 8.53172 22.0752C8.7944 22.0752 9.06896 21.8728 9.35938 21.4621V15.9397H10.6696L10.6699 23.1656ZM15.6441 20.9968C15.6441 21.6651 15.5991 22.1466 15.5116 22.4528C15.3367 22.9903 14.9865 23.2649 14.4657 23.2649C13.9998 23.2649 13.5503 23.0062 13.1124 22.4656V23.1658H11.8033V13.4678H13.1124V16.6349C13.5353 16.1143 13.9842 15.8511 14.4657 15.8511C14.9865 15.8511 15.3369 16.1254 15.5116 16.6663C15.5996 16.957 15.6441 17.4348 15.6441 18.1189V20.9968ZM20.5854 19.7912H17.9668V21.0721C17.9668 21.7409 18.1856 22.0749 18.6357 22.0749C18.9581 22.0749 19.1458 21.8997 19.2205 21.5499C19.2326 21.4788 19.2499 21.1878 19.2499 20.6628H20.5857V20.8538C20.5857 21.2759 20.5695 21.5666 20.5576 21.6973C20.5138 21.9872 20.4107 22.2502 20.2519 22.4817C19.8893 23.0065 19.3521 23.2652 18.6682 23.2652C17.9832 23.2652 17.4619 23.0187 17.0834 22.5253C16.8057 22.1635 16.6631 21.594 16.6631 20.8261V18.2953C16.6631 17.5228 16.7896 16.9579 17.0678 16.5927C17.446 16.0982 17.9671 15.852 18.636 15.852C19.2929 15.852 19.8138 16.0982 20.1806 16.5927C20.4549 16.9579 20.5859 17.5228 20.5859 18.2953V19.7912H20.5854Z" fill="white"/>
<path d="M18.6241 17.03C18.1865 17.03 17.9672 17.3643 17.9672 18.0323V18.7009H19.2763V18.0323C19.276 17.3643 19.0572 17.03 18.6241 17.03Z" fill="white"/>
<path d="M13.7651 17.03C13.5494 17.03 13.3309 17.1319 13.1121 17.3485V21.7525C13.3306 21.9716 13.5494 22.0752 13.7651 22.0752C14.1427 22.0752 14.3346 21.7525 14.3346 21.1001V18.0159C14.3346 17.3643 14.1427 17.03 13.7651 17.03Z" fill="white"/>
<path d="M14.4965 10.466C14.9791 10.466 15.4812 10.1727 16.008 9.56927V10.3658H17.3313V3.06323H16.008V8.64453C15.7148 9.05892 15.4368 9.26386 15.1721 9.26386C14.9949 9.26386 14.8908 9.15913 14.8619 8.95391C14.8458 8.9106 14.8458 8.74954 14.8458 8.4396V3.06323H13.5267V8.83757C13.5267 9.3533 13.5709 9.70231 13.6439 9.92338C13.777 10.2933 14.0705 10.466 14.4965 10.466Z" fill="white"/>
<path d="M5.28445 6.39704V10.3658H6.75182V6.39704L8.51695 0.56665H7.03317L6.032 4.4148L4.99036 0.56665H3.44629C3.75567 1.47498 4.0775 2.38783 4.38688 3.29701C4.85761 4.6636 5.15142 5.69393 5.28445 6.39704Z" fill="white"/>
<path d="M10.4837 10.4659C11.1466 10.4659 11.6618 10.2166 12.0272 9.71838C12.3049 9.35295 12.4379 8.77722 12.4379 8.00108V5.44395C12.4379 4.66328 12.3052 4.09264 12.0272 3.72382C11.6618 3.22423 11.1469 2.97485 10.4837 2.97485C9.8242 2.97485 9.30932 3.22423 8.94304 3.72382C8.66197 4.09264 8.52893 4.66328 8.52893 5.44395V8.00108C8.52893 8.77722 8.66197 9.35295 8.94304 9.71838C9.30903 10.2166 9.8242 10.4659 10.4837 10.4659ZM9.85222 5.17873C9.85222 4.50307 10.0572 4.16624 10.4837 4.16624C10.9103 4.16624 11.1146 4.50279 11.1146 5.17873V8.25045C11.1146 8.92611 10.9103 9.26407 10.4837 9.26407C10.0572 9.26407 9.85222 8.92611 9.85222 8.25045V5.17873Z" fill="white"/>
</svg>
