<svg width="316" height="528" viewBox="0 0 316 528" fill="none" xmlns="http://www.w3.org/2000/svg">
<path d="M59.8245 0H57.0958V9.09556L48 9.09555L48 11.8243L57.0958 11.8243V20.92H59.8245V11.8243L68.92 11.8243V9.09556L59.8245 9.09556V0Z" fill="#F07536"/>
<g opacity="0.3" filter="url(#filter0_b)">
<rect x="214" y="349" width="137" height="26" rx="13" transform="rotate(-180 214 349)" fill="#656FF5"/>
</g>
<g opacity="0.6">
<circle r="67.5" transform="matrix(1 0 0 -1 33.5 460.5)" fill="url(#paint0_linear)"/>
<circle r="67.5" transform="matrix(1 0 0 -1 33.5 460.5)" fill="url(#paint1_linear)"/>
<circle r="67.5" transform="matrix(1 0 0 -1 33.5 460.5)" fill="url(#paint2_radial)"/>
</g>
<g opacity="0.9" filter="url(#filter1_b)">
<rect x="316" y="123" width="64" height="5" rx="2.5" transform="rotate(-180 316 123)" fill="#7860A8"/>
</g>
<defs>
<filter id="filter0_b" x="64" y="310" width="163" height="52" filterUnits="userSpaceOnUse" color-interpolation-filters="sRGB">
<feFlood flood-opacity="0" result="BackgroundImageFix"/>
<feGaussianBlur in="BackgroundImage" stdDeviation="6.5"/>
<feComposite in2="SourceAlpha" operator="in" result="effect1_backgroundBlur"/>
<feBlend mode="normal" in="SourceGraphic" in2="effect1_backgroundBlur" result="shape"/>
</filter>
<filter id="filter1_b" x="239" y="105" width="90" height="31" filterUnits="userSpaceOnUse" color-interpolation-filters="sRGB">
<feFlood flood-opacity="0" result="BackgroundImageFix"/>
<feGaussianBlur in="BackgroundImage" stdDeviation="6.5"/>
<feComposite in2="SourceAlpha" operator="in" result="effect1_backgroundBlur"/>
<feBlend mode="normal" in="SourceGraphic" in2="effect1_backgroundBlur" result="shape"/>
</filter>
<linearGradient id="paint0_linear" x1="-218.382" y1="-293.824" x2="-6.73018e-06" y2="202.5" gradientUnits="userSpaceOnUse">
<stop stop-color="#A4C2F5"/>
<stop offset="1" stop-color="#6592E0" stop-opacity="0"/>
</linearGradient>
<linearGradient id="paint1_linear" x1="-202.5" y1="388.125" x2="82.5328" y2="-4.56964e-06" gradientUnits="userSpaceOnUse">
<stop offset="0.0709817" stop-color="#5042CC" stop-opacity="0.940374"/>
<stop offset="1" stop-color="#1F1C38" stop-opacity="0"/>
</linearGradient>
<radialGradient id="paint2_radial" cx="0" cy="0" r="1" gradientUnits="userSpaceOnUse" gradientTransform="translate(113.108 83.6159) rotate(-123.499) scale(136.873 143.98)">
<stop stop-color="#D57BEC"/>
<stop offset="0.0001" stop-color="#9D79BA"/>
<stop offset="0.73381" stop-color="#433C8E"/>
<stop offset="1" stop-color="#4C4AA7"/>
</radialGradient>
</defs>
</svg>
