<svg width="188" height="23" viewBox="0 0 188 23" fill="none" xmlns="http://www.w3.org/2000/svg">
<g style="mix-blend-mode:luminosity" clip-path="url(#clip0)">
<path d="M23.8785 4.51282C21.9066 4.51282 21.0509 5.53641 19.4973 5.53641C18.5136 5.53641 17.9011 5.05497 17.1499 4.52329C16.1192 3.78438 14.1111 1.52161 10.4065 1.52161C5.28483 1.52161 0.7842 5.70806 0.81621 11.5356C0.7842 17.3589 5.27843 21.5517 10.4065 21.5517C14.1111 21.5517 16.1192 19.2889 17.1542 18.5521C17.9011 18.0183 18.5136 17.5369 19.5016 17.5369C21.0552 17.5369 21.9109 18.5605 23.8827 18.5605C27.2843 18.5605 29.8067 15.3683 29.8067 11.5188C29.8067 7.66941 27.2779 4.51282 23.8785 4.51282ZM24.015 15.0773C23.3599 15.0773 22.9267 14.8387 22.3697 14.5436C21.5631 14.1249 20.4832 13.656 19.365 13.656C17.5533 13.656 16.2387 14.4933 15.2507 15.0983C14.3672 15.6488 13.488 16.2014 11.975 16.2014C9.58913 16.2014 7.49353 14.1919 7.49353 11.5482C7.49353 8.90441 9.59126 6.89282 11.975 6.89282C13.488 6.89282 14.3672 7.44543 15.2507 7.99595C16.2387 8.60089 17.5533 9.42562 19.365 9.42562C20.4832 9.42562 21.5631 8.96511 22.3697 8.53809C22.9267 8.24295 23.3599 8.00432 24.015 8.00432C25.5729 8.00432 26.7295 9.62238 26.7295 11.5356C26.7295 13.4488 25.5707 15.0773 24.015 15.0773Z" fill="url(#paint0_linear)"/>
<path d="M59.2391 17.9618C57.6613 17.9596 56.1488 17.3438 55.0331 16.2494C53.9174 15.1551 53.2896 13.6714 53.2874 12.1238V6.82582C53.2874 6.3817 53.4672 5.95576 53.7874 5.64172C54.1075 5.32767 54.5418 5.15125 54.9946 5.15125C55.4473 5.15125 55.8816 5.32767 56.2017 5.64172C56.5219 5.95576 56.7018 6.3817 56.7018 6.82582V12.1238C56.7018 12.7839 56.9691 13.4169 57.4449 13.8837C57.9208 14.3504 58.5662 14.6126 59.2391 14.6126C59.912 14.6126 60.5574 14.3504 61.0333 13.8837C61.5091 13.4169 61.7764 12.7839 61.7764 12.1238V6.82582C61.7764 6.3817 61.9563 5.95576 62.2765 5.64172C62.5966 5.32767 63.0309 5.15125 63.4836 5.15125C63.9364 5.15125 64.3707 5.32767 64.6908 5.64172C65.011 5.95576 65.1908 6.3817 65.1908 6.82582V12.1238C65.1892 13.6716 64.5616 15.1556 63.4458 16.25C62.3299 17.3445 60.8171 17.9601 59.2391 17.9618V17.9618Z" fill="#197CD8"/>
<path d="M79.9069 5.15125C78.4878 5.15125 77.0964 5.74363 76.309 6.63953C75.5215 5.74363 74.1323 5.15125 72.7132 5.15125C71.3072 5.15291 69.9594 5.70147 68.9652 6.67661C67.9711 7.65175 67.4119 8.97385 67.4102 10.3529V16.2872C67.4102 16.7313 67.59 17.1573 67.9102 17.4713C68.2303 17.7853 68.6646 17.9618 69.1174 17.9618C69.5701 17.9618 70.0044 17.7853 70.3245 17.4713C70.6447 17.1573 70.8246 16.7313 70.8246 16.2872V10.3529C70.8246 10.1096 70.8734 9.86874 70.9683 9.64398C71.0632 9.41923 71.2024 9.21501 71.3777 9.04299C71.5531 8.87097 71.7613 8.73451 71.9904 8.64142C72.2196 8.54832 72.4652 8.5004 72.7132 8.5004C72.9612 8.5004 73.2068 8.54832 73.4359 8.64142C73.665 8.73451 73.8732 8.87097 74.0486 9.04299C74.224 9.21501 74.3631 9.41923 74.458 9.64398C74.5529 9.86874 74.6018 10.1096 74.6018 10.3529V16.2872C74.6018 16.7313 74.7816 17.1573 75.1018 17.4713C75.422 17.7853 75.8562 17.9618 76.309 17.9618C76.7618 17.9618 77.196 17.7853 77.5162 17.4713C77.8363 17.1573 78.0162 16.7313 78.0162 16.2872V10.3529C78.0327 9.8721 78.239 9.41638 78.5916 9.08196C78.9441 8.74755 79.4154 8.56061 79.9059 8.56061C80.3963 8.56061 80.8676 8.74755 81.2202 9.08196C81.5727 9.41638 81.779 9.8721 81.7955 10.3529V16.2872C81.7955 16.7313 81.9754 17.1573 82.2956 17.4713C82.6157 17.7853 83.05 17.9618 83.5027 17.9618C83.9555 17.9618 84.3897 17.7853 84.7099 17.4713C85.0301 17.1573 85.2099 16.7313 85.2099 16.2872V10.3529C85.2082 8.97385 84.649 7.65175 83.6549 6.67661C82.6607 5.70147 81.3129 5.15291 79.9069 5.15125V5.15125Z" fill="#197CD8"/>
<path d="M38.5519 5.15125C36.8207 5.15346 35.1611 5.82901 33.937 7.02975C32.7128 8.23049 32.0241 9.85841 32.0219 11.5565V20.6913C32.0219 21.1355 32.2017 21.5614 32.5219 21.8754C32.842 22.1895 33.2763 22.3659 33.7291 22.3659C34.1818 22.3659 34.6161 22.1895 34.9362 21.8754C35.2564 21.5614 35.4363 21.1355 35.4363 20.6913V17.0868C36.2216 17.6436 37.4252 17.9618 38.5519 17.9618C40.2838 17.9618 41.9448 17.2869 43.1694 16.0857C44.394 14.8845 45.082 13.2553 45.082 11.5565C45.082 9.85773 44.394 8.22852 43.1694 7.0273C41.9448 5.82608 40.2838 5.15125 38.5519 5.15125V5.15125ZM38.5519 14.6126C37.9357 14.6126 37.3333 14.4334 36.821 14.0976C36.3086 13.7618 35.9093 13.2845 35.6734 12.726C35.4376 12.1676 35.3759 11.5531 35.4961 10.9603C35.6164 10.3675 35.9131 9.82292 36.3488 9.39552C36.7846 8.96811 37.3397 8.67705 37.9441 8.55913C38.5485 8.44121 39.1749 8.50173 39.7442 8.73304C40.3136 8.96435 40.8002 9.35606 41.1425 9.85863C41.4849 10.3612 41.6676 10.9521 41.6676 11.5565C41.6665 12.3667 41.3378 13.1434 40.7538 13.7163C40.1697 14.2892 39.3779 14.6115 38.5519 14.6126V14.6126Z" fill="#197CD8"/>
<path d="M48.8891 17.9618C48.4363 17.9618 48.0021 17.7853 47.6819 17.4713C47.3617 17.1573 47.1819 16.7313 47.1819 16.2872V6.82582C47.1819 6.3817 47.3617 5.95576 47.6819 5.64172C48.0021 5.32767 48.4363 5.15125 48.8891 5.15125C49.3419 5.15125 49.7761 5.32767 50.0963 5.64172C50.4164 5.95576 50.5963 6.3817 50.5963 6.82582V16.2872C50.5963 16.7313 50.4164 17.1573 50.0963 17.4713C49.7761 17.7853 49.3419 17.9618 48.8891 17.9618Z" fill="#197CD8"/>
<path d="M90.1593 17.8331C91.0304 17.4792 91.444 16.4996 91.0832 15.6452C90.7224 14.7908 89.7237 14.385 88.8526 14.7389C87.9816 15.0928 87.5679 16.0724 87.9287 16.9269C88.2895 17.7813 89.2882 18.1871 90.1593 17.8331Z" fill="#197CD8"/>
<path d="M181.501 11.7511L187.011 7.19838C187.205 7.03628 187.325 6.80528 187.345 6.5562C187.365 6.30713 187.284 6.06038 187.119 5.87023C186.953 5.68009 186.718 5.56214 186.464 5.54231C186.21 5.52249 185.958 5.60242 185.764 5.76453L179.599 10.9201V1.57598C179.599 1.32616 179.498 1.08657 179.318 0.909924C179.138 0.733274 178.894 0.634033 178.639 0.634033C178.384 0.634033 178.14 0.733274 177.96 0.909924C177.78 1.08657 177.679 1.32616 177.679 1.57598V17.0198C177.679 17.2696 177.78 17.5092 177.96 17.6859C178.14 17.8625 178.384 17.9617 178.639 17.9617C178.894 17.9617 179.138 17.8625 179.318 17.6859C179.498 17.5092 179.599 17.2696 179.599 17.0198V12.5801L185.764 17.7378C185.86 17.818 185.972 17.879 186.092 17.9171C186.212 17.9552 186.338 17.9698 186.464 17.96C186.59 17.9502 186.712 17.9162 186.824 17.8599C186.937 17.8036 187.037 17.7262 187.119 17.6321C187.2 17.5379 187.262 17.4289 187.301 17.3112C187.34 17.1935 187.355 17.0694 187.345 16.9461C187.335 16.8228 187.3 16.7026 187.243 16.5924C187.186 16.4822 187.107 16.3842 187.011 16.3039L181.501 11.7511Z" fill="#197CD8"/>
<path d="M137.527 17.9617C138.316 17.9607 139.094 17.7713 139.791 17.4099C140.489 17.0485 141.087 16.5259 141.533 15.8874C141.979 16.5259 142.577 17.0485 143.274 17.4099C143.972 17.7713 144.749 17.9607 145.538 17.9617C146.855 17.9606 148.118 17.4472 149.049 16.534C149.981 15.6208 150.505 14.3825 150.506 13.0908V6.4804C150.506 6.23058 150.405 5.99099 150.225 5.81434C150.045 5.63769 149.801 5.53845 149.546 5.53845C149.291 5.53845 149.047 5.63769 148.867 5.81434C148.687 5.99099 148.586 6.23058 148.586 6.4804V13.0908C148.565 13.8696 148.235 14.6096 147.666 15.1531C147.097 15.6967 146.334 16.0008 145.539 16.0008C144.745 16.0008 143.982 15.6967 143.413 15.1531C142.844 14.6096 142.514 13.8696 142.493 13.0908V6.4804C142.493 6.23058 142.392 5.99099 142.212 5.81434C142.032 5.63769 141.788 5.53845 141.533 5.53845C141.278 5.53845 141.034 5.63769 140.854 5.81434C140.674 5.99099 140.573 6.23058 140.573 6.4804V13.0908C140.573 13.883 140.252 14.6428 139.681 15.203C139.11 15.7631 138.335 16.0778 137.527 16.0778C136.72 16.0778 135.945 15.7631 135.374 15.203C134.803 14.6428 134.482 13.883 134.482 13.0908V6.4804C134.482 6.23058 134.381 5.99099 134.201 5.81434C134.021 5.63769 133.777 5.53845 133.522 5.53845C133.267 5.53845 133.023 5.63769 132.843 5.81434C132.663 5.99099 132.562 6.23058 132.562 6.4804V13.0908C132.563 14.3821 133.087 15.6201 134.018 16.5332C134.949 17.4464 136.211 17.9601 137.527 17.9617V17.9617Z" fill="#197CD8"/>
<path d="M129.098 16.0778C127.928 16.0767 126.807 15.6206 125.979 14.8095C125.152 13.9984 124.687 12.8985 124.685 11.7511V7.42654H129.098C129.216 7.42654 129.332 7.4038 129.441 7.35962C129.55 7.31544 129.649 7.25068 129.732 7.16905C129.815 7.08741 129.881 6.99049 129.926 6.88383C129.971 6.77716 129.994 6.66284 129.994 6.54739C129.994 6.43194 129.971 6.31762 129.926 6.21095C129.881 6.10429 129.815 6.00737 129.732 5.92573C129.649 5.8441 129.55 5.77934 129.441 5.73516C129.332 5.69098 129.216 5.66824 129.098 5.66824H124.685V1.57598C124.685 1.32616 124.584 1.08657 124.404 0.909924C124.224 0.733274 123.979 0.634033 123.725 0.634033C123.47 0.634033 123.226 0.733274 123.046 0.909924C122.865 1.08657 122.764 1.32616 122.764 1.57598V11.7511C122.767 13.398 123.435 14.9767 124.622 16.141C125.809 17.3053 127.419 17.9601 129.098 17.9617C129.353 17.9617 129.597 17.8625 129.777 17.6858C129.957 17.5092 130.058 17.2696 130.058 17.0198C130.058 16.77 129.957 16.5304 129.777 16.3537C129.597 16.1771 129.353 16.0778 129.098 16.0778V16.0778Z" fill="#197CD8"/>
<path d="M169.19 17.9617C169.063 17.962 168.938 17.9378 168.822 17.8906C168.705 17.8434 168.599 17.774 168.51 17.6865C168.421 17.5989 168.35 17.495 168.302 17.3806C168.254 17.2662 168.229 17.1436 168.229 17.0198V11.7511C168.231 10.1043 168.899 8.52537 170.086 7.36068C171.273 6.196 172.882 5.54067 174.561 5.53845C174.816 5.53845 175.06 5.63769 175.24 5.81434C175.42 5.99099 175.521 6.23058 175.521 6.4804C175.521 6.73022 175.42 6.96981 175.24 7.14646C175.06 7.32311 174.816 7.42235 174.561 7.42235C173.391 7.42402 172.27 7.88068 171.443 8.69219C170.616 9.50369 170.151 10.6038 170.15 11.7511V17.0198C170.15 17.2696 170.049 17.5092 169.869 17.6858C169.689 17.8625 169.444 17.9617 169.19 17.9617V17.9617Z" fill="#197CD8"/>
<path d="M104.388 17.9618C104.134 17.9618 103.889 17.8625 103.709 17.6859C103.529 17.5092 103.428 17.2696 103.428 17.0198V11.119C103.44 10.6263 103.351 10.1362 103.167 9.67761C102.983 9.21898 102.708 8.80106 102.357 8.44844C102.006 8.09582 101.586 7.81561 101.123 7.6243C100.66 7.43299 100.163 7.33444 99.6603 7.33444C99.1579 7.33444 98.6605 7.43299 98.1974 7.6243C97.7344 7.81561 97.315 8.09582 96.964 8.44844C96.6129 8.80106 96.3373 9.21898 96.1534 9.67761C95.9694 10.1362 95.8808 10.6263 95.8927 11.119V17.0198C95.8927 17.2696 95.7916 17.5092 95.6115 17.6859C95.4314 17.8625 95.1871 17.9618 94.9324 17.9618C94.6778 17.9618 94.4335 17.8625 94.2534 17.6859C94.0733 17.5092 93.9721 17.2696 93.9721 17.0198V11.119C93.9575 10.3772 94.0938 9.64001 94.3731 8.95049C94.6524 8.26097 95.069 7.63301 95.5986 7.10332C96.1283 6.57363 96.7603 6.15286 97.4577 5.86561C98.1551 5.57837 98.9039 5.43042 99.6603 5.43042C100.417 5.43042 101.166 5.57837 101.863 5.86561C102.56 6.15286 103.192 6.57363 103.722 7.10332C104.252 7.63301 104.668 8.26097 104.948 8.95049C105.227 9.64001 105.363 10.3772 105.349 11.119V17.0198C105.349 17.1436 105.324 17.2662 105.276 17.3806C105.228 17.495 105.157 17.599 105.068 17.6865C104.979 17.774 104.873 17.8434 104.756 17.8906C104.639 17.9379 104.514 17.9621 104.388 17.9618V17.9618Z" fill="#197CD8"/>
<path d="M120.502 11.7512C120.503 10.5223 120.132 9.32095 119.436 8.29901C118.74 7.27706 117.751 6.48044 116.594 6.00989C115.436 5.53935 114.163 5.41602 112.934 5.6555C111.705 5.89498 110.577 6.48652 109.691 7.35529C108.805 8.22407 108.201 9.33106 107.957 10.5363C107.712 11.7415 107.837 12.9907 108.317 14.1261C108.796 15.2614 109.608 16.2318 110.649 16.9146C111.691 17.5973 112.916 17.9618 114.168 17.9618C115.117 17.9636 116.053 17.7539 116.906 17.3484C117.024 17.2975 117.131 17.2238 117.219 17.1317C117.308 17.0395 117.376 16.9309 117.421 16.8122C117.465 16.6935 117.485 16.5672 117.479 16.4408C117.473 16.3145 117.441 16.1906 117.385 16.0767C117.329 15.9627 117.25 15.8611 117.153 15.7777C117.056 15.6943 116.943 15.631 116.82 15.5914C116.698 15.5519 116.568 15.5369 116.44 15.5475C116.311 15.5581 116.186 15.5939 116.072 15.6529C115.473 15.9338 114.816 16.077 114.151 16.0716C113.18 16.0701 112.237 15.7545 111.467 15.1736C110.697 14.5927 110.144 13.7789 109.894 12.8585H119.525C119.78 12.8579 120.024 12.7582 120.204 12.5812C120.384 12.4043 120.485 12.1644 120.485 11.9144L120.502 11.7512ZM114.168 7.42237C115.223 7.42362 116.242 7.7952 117.042 8.46984C117.841 9.14447 118.368 10.0776 118.526 11.1002H109.811C109.97 10.0779 110.497 9.14533 111.296 8.47084C112.095 7.79636 113.114 7.42447 114.168 7.42237V7.42237Z" fill="#197CD8"/>
<path d="M159.57 17.9618C158.317 17.9618 157.092 17.5973 156.051 16.9146C155.009 16.2318 154.197 15.2614 153.718 14.1261C153.238 12.9907 153.113 11.7415 153.358 10.5363C153.602 9.33106 154.206 8.22407 155.092 7.35529C155.978 6.48652 157.106 5.89498 158.335 5.6555C159.564 5.41602 160.838 5.53935 161.995 6.00989C163.152 6.48044 164.141 7.27706 164.837 8.29901C165.533 9.32095 165.904 10.5223 165.903 11.7512C165.902 13.3982 165.234 14.9772 164.046 16.1416C162.859 17.306 161.249 17.9606 159.57 17.9618V17.9618ZM159.57 7.42237C158.697 7.42237 157.844 7.67625 157.118 8.15191C156.392 8.62756 155.826 9.30362 155.492 10.0946C155.158 10.8856 155.071 11.756 155.241 12.5957C155.412 13.4354 155.832 14.2067 156.449 14.8121C157.066 15.4175 157.853 15.8297 158.709 15.9968C159.565 16.1638 160.452 16.0781 161.258 15.7504C162.065 15.4228 162.754 14.868 163.239 14.1561C163.724 13.4442 163.983 12.6073 163.983 11.7512C163.982 10.6034 163.516 9.50304 162.689 8.69147C161.862 7.87991 160.74 7.42348 159.57 7.42237V7.42237Z" fill="#197CD8"/>
</g>
<defs>
<linearGradient id="paint0_linear" x1="0.81621" y1="11.5377" x2="29.8025" y2="11.5377" gradientUnits="userSpaceOnUse">
<stop stop-color="#31EDA9"/>
<stop offset="0.06" stop-color="#71EF74"/>
<stop offset="0.13" stop-color="#AEF043"/>
<stop offset="0.18" stop-color="#DAF11E"/>
<stop offset="0.22" stop-color="#F5F208"/>
<stop offset="0.25" stop-color="#FFF200"/>
<stop offset="0.27" stop-color="#FEDC0E"/>
<stop offset="0.38" stop-color="#FA685A"/>
<stop offset="0.46" stop-color="#F71F89"/>
<stop offset="0.5" stop-color="#F0059E"/>
<stop offset="0.56" stop-color="#BE21AB"/>
<stop offset="0.61" stop-color="#9239B7"/>
<stop offset="0.66" stop-color="#6C4EC1"/>
<stop offset="0.72" stop-color="#4E5FCA"/>
<stop offset="0.78" stop-color="#376CD0"/>
<stop offset="0.84" stop-color="#2675D4"/>
<stop offset="0.91" stop-color="#1C7AD7"/>
<stop offset="1" stop-color="#197CD8"/>
</linearGradient>
<clipPath id="clip0">
<rect width="186.532" height="21.7319" fill="white" transform="translate(0.816284 0.634033)"/>
</clipPath>
</defs>
</svg>
